<svg xmlns="http://www.w3.org/2000/svg" viewBox="0 0 320 320">
  <defs>
    <linearGradient id="bg" x1="0" y1="0" x2="1" y2="1">
      <stop offset="0%" stop-color="#f4fbf7"/>
      <stop offset="100%" stop-color="#d9efe1"/>
    </linearGradient>
  </defs>
  <rect width="320" height="320" rx="44" fill="url(#bg)"/>
  <rect x="108" y="34" width="104" height="252" rx="26" fill="#ffffff" stroke="#2d5a3d" stroke-width="8"/>
  <rect x="124" y="66" width="72" height="120" rx="12" fill="#eef7f1"/>
  <rect x="132" y="78" width="56" height="10" rx="5" fill="#2d5a3d" opacity="0.2"/>
  <rect x="132" y="96" width="44" height="10" rx="5" fill="#2d5a3d" opacity="0.18"/>
  <rect x="132" y="114" width="50" height="10" rx="5" fill="#2d5a3d" opacity="0.16"/>
  <rect x="132" y="132" width="36" height="10" rx="5" fill="#2d5a3d" opacity="0.14"/>
  <circle cx="160" cy="226" r="28" fill="#2d5a3d"/>
  <path d="M147 226l8 8 18-22" fill="none" stroke="#ffffff" stroke-width="8" stroke-linecap="round" stroke-linejoin="round"/>
  <circle cx="160" cy="260" r="7" fill="#2d5a3d" opacity="0.25"/>
  <path d="M62 120c18-18 48-18 66 0" fill="none" stroke="#2d5a3d" stroke-width="8" stroke-linecap="round" opacity="0.25"/>
  <path d="M48 94c30-30 84-30 114 0" fill="none" stroke="#2d5a3d" stroke-width="8" stroke-linecap="round" opacity="0.15"/>
  <path d="M192 94c30-30 84-30 114 0" fill="none" stroke="#2d5a3d" stroke-width="8" stroke-linecap="round" opacity="0.15"/>
  <path d="M206 120c18-18 48-18 66 0" fill="none" stroke="#2d5a3d" stroke-width="8" stroke-linecap="round" opacity="0.25"/>
</svg>