<svg xmlns="http://www.w3.org/2000/svg" viewBox="0 0 167 40" fill="none"><g clip-path="url(#clip0_1457_6864)"><path d="M39.1719 38.8865V11.731H51.779C53.5373 11.731 55.1221 12.0814 56.5336 12.7823C57.9497 13.4787 59.0686 14.4807 59.8926 15.7926C60.7211 17.1001 61.1354 18.6816 61.1354 20.5372C61.1354 22.3703 60.7211 23.9496 59.8926 25.2729C59.0686 26.5914 57.9497 27.6001 56.5336 28.301C55.1221 29.002 53.5373 29.3525 51.779 29.3525H46.8172V38.8865H39.1719ZM50.2931 17.2214H46.8172V23.853H50.2931C51.1577 23.853 51.9186 23.5745 52.5805 23.0174C53.2468 22.4601 53.5801 21.6334 53.5801 20.5372C53.5801 19.4185 53.2468 18.585 52.5805 18.0391C51.9186 17.4954 51.1577 17.2214 50.2931 17.2214Z" fill="white"></path><path d="M70.3015 38.8865V18.2098H62.1699V11.731H86.1235V18.2098H77.9469V38.8865H70.3015Z" fill="white"></path><path d="M88.9805 38.8865V11.731H96.6258V38.8865H88.9805Z" fill="white"></path><path d="M101.126 38.8865V11.731H106.664L115.57 24.7696L124.467 11.731H130.005V38.8865H122.441V26.1445L118.01 32.4796H113.121L108.69 26.0725V38.8865H101.126Z" fill="white"></path><path d="M134.509 38.8865V11.731H142.154V38.8865H134.509Z" fill="white"></path><path d="M154.909 39.3449C152.59 39.3449 150.571 39.008 148.848 38.3385C147.131 37.6622 145.546 36.5862 144.094 35.1125L148.876 30.3409C149.866 31.2822 150.906 32.0011 152 32.4976C153.099 32.9963 154.272 33.2434 155.521 33.2434C156.566 33.2434 157.354 33.0862 157.89 32.7671C158.423 32.4503 158.691 32.0102 158.691 31.4462C158.691 30.788 158.385 30.26 157.772 29.8647C157.16 29.4693 156.377 29.1076 155.422 28.7774C154.468 28.4494 153.45 28.0742 152.369 27.6542C151.289 27.2363 150.267 26.7083 149.308 26.0725C148.353 25.4391 147.57 24.6123 146.957 23.5925C146.349 22.5749 146.048 21.2898 146.048 19.7374C146.048 17.983 146.467 16.4711 147.309 15.1996C148.148 13.9303 149.33 12.9598 150.857 12.2881C152.387 11.6119 154.182 11.2727 156.242 11.2727C158.281 11.2727 160.172 11.5962 161.915 12.2432C163.662 12.8902 165.107 13.8135 166.255 15.0109L161.437 19.7734C160.595 18.9602 159.756 18.3582 158.916 17.9673C158.074 17.5719 157.16 17.3742 156.17 17.3742C155.377 17.3742 154.742 17.5045 154.27 17.7606C153.801 18.0122 153.567 18.3942 153.567 18.9018C153.567 19.5129 153.873 20.0116 154.486 20.3934C155.098 20.7709 155.881 21.1191 156.836 21.4358C157.79 21.7549 158.808 22.1165 159.889 22.5231C160.974 22.932 161.996 23.4576 162.95 24.1047C163.905 24.7516 164.688 25.5963 165.301 26.6387C165.913 27.6811 166.219 29.0178 166.219 30.6465C166.219 33.4209 165.231 35.5663 163.257 37.0803C161.28 38.59 158.497 39.3449 154.909 39.3449Z" fill="white"></path><mask id="mask0_1457_6864" style="mask-type:luminance" maskUnits="userSpaceOnUse" x="0" y="0" width="39" height="40"><path d="M0 0H38.263V19.7158C38.263 30.9185 29.1622 40 17.9358 40C8.03013 40 0 31.9869 0 22.1022V0Z" fill="white"></path></mask><g mask="url(#mask0_1457_6864)"><path d="M12.3693 4.52255C12.9805 6.55019 13.272 6.56686 11.7839 8.274C11.3401 8.7833 10.9438 9.09506 10.41 8.64924C10.6562 9.22753 10.9516 9.52104 11.233 10.0002C11.8824 8.76664 12.8202 7.79328 13.9081 6.95795C14.0613 6.84055 14.1785 6.71837 14.2051 6.52164C13.6275 5.82275 13.1282 5.0501 12.3693 4.52255ZM8.46798 4.59553C8.37107 4.27188 8.15538 4.11004 7.84277 4.24728C7.54423 4.37897 7.43795 4.66059 7.36135 4.99059C7.00264 6.53513 7.2707 8.01699 7.73181 9.48615C7.84355 9.84233 7.98502 10.1898 8.0741 10.5515C8.13114 10.7824 8.21946 11.0727 7.95765 11.233C7.64426 11.4249 7.56221 11.0426 7.36761 10.9339C7.44341 11.1814 7.51923 11.4281 7.59502 11.6748C8.04283 11.6447 8.47345 11.5527 8.85874 11.3044C8.03736 9.65751 7.70052 7.88768 7.61769 6.06391C7.58877 5.42135 7.51923 4.68675 8.46798 4.59553ZM30.4027 7.56004C29.8909 7.6354 29.6307 8.31684 29.414 8.65717C28.8849 9.48773 28.474 9.5639 27.4971 9.15851C26.9109 8.91579 26.3991 8.57546 25.7973 8.37159C25.7379 8.37079 25.516 8.67144 25.4762 8.71666C25.4597 8.98084 25.5176 9.20215 25.7933 9.30688C26.8876 9.72017 27.9808 10.1351 29.0742 10.5499C29.4211 9.76935 29.8628 8.77615 30.4027 7.56004ZM33.2085 12.0445C33.0498 12.1238 32.881 12.1889 32.734 12.2865C32.541 12.4157 32.3541 12.4776 32.1549 12.3253C31.962 12.177 31.9532 11.9779 32.001 11.7502C32.1191 11.1893 32.3127 10.6404 32.2674 10.0541C31.9228 10.5055 31.8416 11.0704 31.6297 11.5788C31.5132 11.8589 31.4673 12.2198 31.0209 12.0104C31.4899 12.5022 32.0597 12.8513 32.6418 13.1829C32.863 12.8203 33.1248 12.4776 33.2085 12.0445Z" fill="white"></path><path d="M22.7832 27.1365C22.3614 27.1547 22.173 26.7542 22.2176 26.3345C22.2714 25.8696 22.4692 25.496 22.981 25.4143C23.3852 25.5143 23.5289 25.8062 23.5016 26.1887C23.475 26.6534 23.2593 27.1096 22.7832 27.1365ZM23.915 24.4934C23.8704 24.2291 23.807 23.9643 23.7086 23.7C23.6548 23.5358 23.5827 23.3811 23.493 23.2447C23.4116 23.1074 23.3132 22.9798 23.1968 22.8709C22.9717 22.6522 22.7028 22.4965 22.3614 22.4331C21.7236 22.3054 21.2383 22.5974 20.8436 23.0527C20.7982 23.0987 20.7536 23.1622 20.7091 23.2169C20.4216 23.5905 20.2239 23.992 20.0895 24.4116C20.026 24.6211 19.9816 24.84 19.9457 25.0676C19.9184 25.2867 19.9003 25.5143 19.9003 25.7418C19.9003 26.1069 19.9457 26.4527 20.026 26.7723C20.2864 27.7387 20.8795 28.4223 21.6072 28.5225C22.3433 28.6138 23.1155 27.9845 23.5648 27.0454C23.6368 26.9002 23.6993 26.7447 23.7532 26.59C23.807 26.4258 23.8523 26.2616 23.8877 26.0885C23.915 25.9427 23.9414 25.788 23.9509 25.642V25.6325C23.9688 25.4412 23.9759 25.2518 23.9697 25.0622C23.9642 24.8709 23.9462 24.6814 23.915 24.4934ZM11.9617 24.0283C11.9257 24.3291 11.8452 24.694 11.5037 24.7209H11.4584C11.4052 24.7209 11.3513 24.7029 11.3239 24.6758C11.1981 24.5845 11.1981 24.3472 11.1716 24.1745C11.1895 24.1014 11.2075 24.0189 11.2255 23.9371C11.2434 23.8554 11.2614 23.7825 11.288 23.7183C11.3239 23.6547 11.3599 23.6002 11.4138 23.5542C11.4763 23.5089 11.5482 23.4811 11.6381 23.4811C11.7374 23.4811 11.8093 23.5089 11.8538 23.5542C11.8718 23.5636 11.8812 23.5723 11.8898 23.5905C11.8991 23.6087 11.9077 23.6183 11.9077 23.6271C11.9171 23.6452 11.9257 23.6547 11.9343 23.6731C11.9437 23.6912 11.9437 23.7096 11.9437 23.7278C11.9617 23.7729 11.971 23.8372 11.971 23.9007C11.971 23.946 11.9617 23.992 11.9617 24.0283ZM11.4044 21.4892C10.9605 21.4074 9.82422 21.8414 9.82422 23.8462C9.87813 24.6576 9.8797 25.7682 10.83 25.7785C11.7233 25.7889 11.9867 25.0772 12.2211 24.3671C12.4798 23.5825 12.2672 21.6471 11.4044 21.4892Z" fill="white"></path><path d="M28.8118 22.7798C28.7102 22.5545 28.4992 22.3418 28.3818 22.1302C28.2031 21.812 28.0145 21.5011 27.8161 21.1829C27.627 20.872 27.4387 20.5611 27.2667 20.2533C27.2401 20.216 27.2228 20.1778 27.2128 20.1436C27.1527 20.0342 27.0885 19.9249 27.0448 19.8058C26.9807 19.686 26.9267 19.5591 26.883 19.4331C26.8291 19.3131 26.7925 19.1934 26.7549 19.0774C26.7485 19.0673 26.7485 19.0498 26.7485 19.0291C26.7008 18.9133 26.6673 18.7833 26.6471 18.6467C26.6205 18.52 26.5938 18.3834 26.5867 18.2469C26.5663 18.1098 26.5594 17.9733 26.5594 17.8266C26.5594 17.6283 26.5765 17.4164 26.6031 17.2078C26.5867 17.2895 26.5663 17.3719 26.5392 17.4434C26.4953 17.5631 26.4525 17.683 26.3976 17.7821C26.361 17.8638 26.3173 17.9463 26.2633 18.0281C26.1013 18.312 25.9131 18.5642 25.7513 18.838C25.7045 18.9205 25.6506 19.0125 25.6068 19.1045C25.5793 19.1489 25.5629 19.1871 25.5425 19.2418C25.5358 19.2522 25.5325 19.2616 25.5294 19.2727C23.9532 19.5765 22.212 19.4051 21.3873 19.0538C21.0905 18.9269 20.8347 18.7254 20.6425 18.4722C20.451 18.2233 20.3229 17.9218 20.2759 17.5972C20.2488 17.341 20.2354 17.1697 20.2354 17.1697C16.4052 20.9838 11.5747 19.9249 9.43408 19.2418C9.47081 19.2069 9.49348 19.1854 9.49348 19.1854C9.53724 19.1418 9.38016 19.0713 9.38016 19.0713C9.37311 19.0729 9.32388 19.0149 9.31685 19.0165L9.27622 18.9649C9.23792 18.9769 9.15274 18.9529 9.11522 18.9658C9.03394 18.9864 8.95579 19.0165 8.87764 19.0482C8.47204 18.8943 8.22429 18.7714 8.18523 18.7491C8.28916 18.8944 8.43922 19.0371 8.61975 19.1743C8.05313 19.4989 7.62566 20.4149 7.33415 20.9347C7.25835 20.9871 6.05793 23.7969 6.67063 28.0416C6.69173 28.7113 7.67644 30.7667 7.65847 30.6842C7.64987 30.6571 5.92899 24.8313 8.20241 20.7736C8.24618 20.6958 8.34777 20.5736 8.47515 20.4349C8.80183 20.0787 9.33326 19.7978 9.77249 19.9938C14.249 21.8596 18.3815 19.3093 18.4606 19.2505C18.5021 19.2194 19.9829 18.1065 19.9995 18.1065C20.0268 18.1273 20.3668 19.0053 20.7739 19.2656C21.4211 19.6725 22.6098 19.8811 23.3435 19.9731C23.9297 20.0478 25.0825 19.9834 25.274 19.9629C25.6872 19.9193 26.0992 19.894 26.4085 20.1756C27.295 20.9822 27.9522 22.1769 27.7723 23.316C27.7246 23.5794 27.0392 27.2714 27.0291 27.4087C27.1909 27.4633 27.6754 26.5209 27.7833 26.2751C27.7997 26.248 28.0739 24.656 28.081 24.6385C28.4678 24.1189 28.7235 23.4391 28.9556 23.1282C28.9119 23.0082 28.8648 22.8893 28.8118 22.7798Z" fill="white"></path><path d="M18.5404 37.3518C18.3138 37.8207 18.3498 38.2689 18.4967 38.7513C18.7656 39.6778 18.2888 40.1347 17.3518 39.8873C17.1243 39.8349 15.8481 38.9044 15.2862 38.8409C14.7235 38.7775 13.3699 39.4802 12.8065 39.4573C12.7017 39.4533 11.4372 39.1891 12.5439 37.9493C12.5611 37.6485 11.8749 36.6253 12.7791 36.4262C13.2503 36.3222 14.5961 37.2685 15.3401 37.3749C16.249 37.5051 16.8406 37.236 17.687 36.8798C17.8316 36.818 18.002 36.81 18.1583 36.81C18.5233 36.8085 18.7327 36.956 18.5404 37.3518Z" fill="white"></path><path d="M17.0195 30.2455C16.939 30.3367 16.8577 30.4278 16.7678 30.5095C15.4119 31.8138 13.6425 31.5853 13.0322 29.9447C12.9517 29.6989 12.9157 29.5435 13.0056 29.434C13.0142 29.4156 13.0322 29.4069 13.0501 29.3887C13.122 29.334 13.2299 29.2975 13.3823 29.2611C16.0668 28.8096 15.5737 27.3007 15.5018 26.9273C14.8765 26.4726 14.1404 26.2598 13.4276 25.9944C13.158 25.9616 12.9001 25.9307 12.6305 25.8982C12.3726 25.9204 12.1123 25.9006 11.8646 25.934C10.8853 26.0522 10.6423 26.3084 10.8713 27.6633C11.044 28.6898 12.5383 28.8873 12.278 29.7164C12.1162 30.2271 11.6942 30.6651 11.0651 30.4462C10.3648 30.2002 10.1671 29.6527 10.3742 28.9422H9.77246C9.80763 29.8535 10.1023 30.3058 10.3883 30.5302C10.7337 30.8015 11.0542 31.1062 11.2433 31.506C11.6418 32.3516 12.489 33.5916 14.0802 33.8169L13.5261 32.8864C14.6241 32.27 15.8495 32.2326 17.1093 32.3326C17.4774 31.6853 17.325 30.9746 17.3789 30.2907C17.2891 30.0177 17.1453 30.2091 17.0195 30.2455Z" fill="white"></path><path d="M17.1087 32.3326C16.4171 33.8097 14.1319 34.3295 12.7158 33.299C13.9553 32.2962 15.6184 32.2144 17.1087 32.3326Z" fill="white"></path><path d="M25.894 29.7426C25.8487 29.7879 25.8128 29.8339 25.7683 29.8704C25.5799 30.0702 25.3822 30.262 25.1665 30.4264C24.2591 31.1553 22.0052 31.6471 21.7895 32.1311C20.4789 33.0697 20.7837 35.0662 20.0835 35.1759C19.8497 35.221 19.6162 35.3026 19.3738 35.3575C17.4967 35.7866 15.5577 36.0991 13.7165 35.586C5.91462 33.4091 6.54138 25.2382 6.54997 25.2479C6.72738 21.2131 7.69726 20.2095 8.44125 19.533C8.75698 19.2457 9.2087 19.1666 9.60649 19.3157C11.0914 19.8733 15.9969 21.3924 20.2358 17.1714C20.2358 17.1714 20.2366 17.1754 20.2366 17.1816C20.2413 18.1194 20.6797 18.8562 21.541 19.1633C22.4617 19.4917 24.0075 19.7828 25.4806 19.387C26.7451 19.1633 27.6273 20.873 27.8159 21.1822C27.8181 21.1855 27.8197 21.1893 27.8219 21.1926C28.4894 22.2833 28.5294 23.6566 27.9471 24.7971C27.604 25.4684 26.756 28.7939 25.894 29.7426ZM11.8033 38.1473C11.7947 38.1473 11.7854 38.1562 11.7768 38.1562C11.7854 38.1473 11.7947 38.1379 11.8033 38.1379V38.1473ZM33.664 23.8786C33.6631 23.8786 34.8275 20.4911 34.8456 20.1668C34.8463 20.1653 34.847 20.1628 34.8479 20.1613V20.1524C34.8479 20.143 34.8563 20.1344 34.8563 20.1248C35.1621 17.7456 34.5149 15.649 33.0341 13.7983C32.8808 13.6166 32.773 13.3882 32.6473 13.1787C32.0633 12.8503 31.4976 12.5044 31.0216 12.0118C30.4925 11.3645 29.6391 11.1551 29.0819 10.5442C27.9861 10.1341 26.8912 9.71446 25.7949 9.30434C25.5167 9.20439 25.4626 8.9767 25.4806 8.71176C23.9362 6.24147 21.7091 5.05628 18.844 5.13879C17.506 5.17528 16.2486 5.58541 15.0544 6.18672C14.7848 6.32396 14.5425 6.5429 14.2104 6.52465C14.183 6.71583 14.0666 6.84356 13.9134 6.95303C12.8271 7.79154 11.8846 8.76648 11.2375 9.99767C10.8514 11.1916 9.90895 11.3375 8.86717 11.301C8.48032 11.547 8.04971 11.6382 7.60032 11.6747C6.35226 12.3585 5.13076 13.0606 4.40316 14.3822C3.46925 16.0774 3.62164 16.7707 5.29252 17.7552C4.48444 18.612 3.72089 19.487 3.46065 20.6904C3.37937 21.0553 3.31685 21.4193 3.31685 21.793C3.31685 23.0146 3.52316 23.27 4.69075 23.4526C4.03507 24.902 3.37077 26.3426 3.2809 27.9648C3.20041 29.6879 3.29029 31.3197 5.22922 32.0304C5.52619 32.1399 5.49885 32.3953 5.54416 32.65C5.93023 34.9837 7.18768 36.315 9.54944 36.7884C10.0973 36.8893 9.98161 37.6913 9.78388 38.1379C9.50724 38.8011 8.85544 39.0231 8.59755 39.6928C8.24041 40.6184 8.83747 41.6713 8.07471 42.2939C6.99389 43.1768 7.43934 44.1733 7.14237 45.1213C6.99857 45.5766 6.74691 45.8319 6.31631 46.0328C5.84897 46.242 5.36441 46.4246 4.89708 46.6437C8.93829 49.0313 13.6352 50.399 18.6558 50.399C21.9693 50.399 25.1399 49.8064 28.0761 48.7124C27.8782 48.603 27.6634 48.5213 27.4477 48.4484C26.4723 48.1333 25.8033 47.337 25.4658 46.619C25.1869 46.0271 25.1617 45.5624 25.1218 44.8293C25.0672 43.8622 25.6807 43.3079 25.7885 42.363C25.894 41.4364 25.0976 40.2506 25.2915 39.335C25.3893 38.8757 25.8855 38.2862 25.9926 37.8277C26.1278 37.2446 26.4505 37.3908 26.81 37.3993C28.427 37.4453 29.2382 35.6842 29.4789 34.3166C32.2931 34.2437 33.6312 31.9391 34.2171 30.547C34.8199 29.1159 35.0026 26.2855 33.664 23.8786Z" fill="white"></path><path d="M10.8496 2.96204C8.91461 0.944702 7.28905 1.33024 6.57007 4.03773C5.97767 6.27162 6.22072 8.46109 7.21091 10.5546L7.36877 10.9361L7.36722 10.9338C7.5618 11.0424 7.64386 11.424 7.95725 11.2328C8.21906 11.0726 8.13075 10.7823 8.0737 10.5514C7.9846 10.1905 7.84314 9.8422 7.73139 9.48602C7.27029 8.01685 7.00225 6.535 7.36095 4.99045C7.43753 4.66045 7.54383 4.37884 7.84236 4.24715C8.15498 4.10991 8.37068 4.27175 8.46757 4.5954L8.46914 4.56129C8.53167 4.65253 9.39212 6.08838 9.39602 6.25973L9.75866 7.18391C9.98137 7.84629 10.6582 9.13935 10.6582 9.13935C10.7215 9.20282 11.3396 8.78316 11.7836 8.27387C13.2715 6.56593 13.1871 6.28273 13.0676 5.13485C13.0676 5.13485 10.8692 2.98185 10.8496 2.96204ZM33.2081 12.0444C34.403 9.6296 34.8102 7.09504 34.3193 4.42882C34.263 4.12418 34.1717 3.82196 34.0613 3.53318C33.2354 1.36752 32.1139 1.08115 30.4085 2.63836C28.501 4.38122 27.1051 6.132 25.7969 8.37145C26.3987 8.57533 26.9105 8.91565 27.4967 9.15918C28.4737 9.56376 29.2105 9.72082 29.7396 8.88947C29.9561 8.54915 30.0734 8.30164 30.4025 7.55991C30.8744 6.79518 31.1635 5.9194 31.759 5.22924C31.9882 4.96429 32.2664 4.72313 32.6319 4.80722C33.0111 4.89367 32.9705 5.30064 33.0149 5.57671C33.1166 6.19387 33.0791 6.81898 32.9227 7.433C32.7008 8.30562 32.4851 9.17982 32.2672 10.0532C32.3123 10.6403 32.1185 11.1892 32.0006 11.7501C31.9529 11.9777 31.9614 12.1768 32.1546 12.3252C32.3539 12.4775 32.5406 12.4156 32.7336 12.2863C32.8805 12.1887 33.0494 12.1237 33.2081 12.0444Z" fill="white"></path><path d="M21.9385 29.5418C19.6752 29.5418 17.834 27.6981 17.834 25.4429C17.834 23.1867 19.6752 21.3431 21.9385 21.3431C24.2019 21.3431 26.0421 23.1867 26.0421 25.4429C26.0421 27.6981 24.2019 29.5418 21.9385 29.5418ZM26.6713 25.4429C26.6713 22.8289 24.5426 20.7014 21.9385 20.7014C19.3252 20.7014 17.2057 22.8289 17.2057 25.4429C17.2057 28.056 19.3252 30.1836 21.9385 30.1836C23.1225 30.1836 24.2157 29.744 25.042 29.0125C25.2709 30.4263 25.5021 34.0929 22.4104 36.6409C19.6816 38.74 16.9993 38.9478 16.9235 38.9565C16.8805 38.9669 12.6283 40.022 12.0625 45.0807L12.6869 45.1536C13.2012 40.5558 16.9071 39.6198 17.0142 39.5903C17.1314 39.5823 19.9018 39.3729 22.7974 37.1471C26.5456 34.058 25.8014 29.4807 25.5772 28.4574C26.2588 27.6411 26.6713 26.5876 26.6713 25.4429Z" fill="white"></path></g></g><defs><clipPath id="clip0_1457_6864"><rect width="166.353" height="40" fill="white"></rect></clipPath></defs></svg>