<svg width="913" height="220" viewBox="0 0 913 220" fill="none" xmlns="http://www.w3.org/2000/svg">
<path d="M214.987 213.876V64.5205H284.179C293.829 64.5205 302.527 66.448 310.274 70.303C318.046 74.1332 324.187 79.6439 328.709 86.8596C333.256 94.0506 335.53 102.749 335.53 112.955C335.53 123.037 333.256 131.723 328.709 139.001C324.187 146.253 318.046 151.801 310.274 155.656C302.527 159.511 293.829 161.439 284.179 161.439H256.947V213.876H214.987ZM276.024 94.7179H256.947V131.192H276.024C280.769 131.192 284.945 129.66 288.578 126.596C292.235 123.531 294.064 118.984 294.064 112.955C294.064 106.802 292.235 102.218 288.578 99.2153C284.945 96.2252 280.769 94.7179 276.024 94.7179Z" fill="black"/>
<path d="M385.839 213.876V100.154H341.21V64.5205H472.675V100.154H427.799V213.876H385.839Z" fill="black"/>
<path d="M488.353 213.876V64.5205H530.313V213.876H488.353Z" fill="black"/>
<path d="M555.014 213.876V64.5205H585.409L634.288 136.233L683.118 64.5205H713.513V213.876H671.997V143.795L647.681 178.638H620.845L596.529 143.399V213.876H555.014Z" fill="black"/>
<path d="M738.231 213.876V64.5205H780.191V213.876H738.231Z" fill="black"/>
<path d="M850.191 216.397C837.464 216.397 826.381 214.544 816.929 210.862C807.502 207.142 798.803 201.224 790.834 193.119L817.078 166.875C822.514 172.052 828.222 176.006 834.227 178.737C840.257 181.48 846.694 182.839 853.552 182.839C859.285 182.839 863.609 181.974 866.55 180.219C869.478 178.477 870.948 176.056 870.948 172.954C870.948 169.334 869.268 166.43 865.907 164.256C862.546 162.081 858.247 160.092 853.008 158.276C847.769 156.472 842.184 154.408 836.254 152.098C830.323 149.8 824.713 146.896 819.45 143.399C814.211 139.915 809.911 135.368 806.55 129.759C803.214 124.162 801.559 117.094 801.559 108.556C801.559 98.9065 803.857 90.5911 808.478 83.5978C813.087 76.6168 819.573 71.2791 827.951 67.5848C836.352 63.8657 846.2 62 857.505 62C868.7 62 879.078 63.7792 888.642 67.3377C898.23 70.8961 906.162 75.9743 912.464 82.5599L886.022 108.754C881.401 104.281 876.793 100.97 872.184 98.82C867.563 96.6454 862.546 95.5581 857.11 95.5581C852.761 95.5581 849.276 96.2747 846.682 97.6833C844.112 99.0671 842.827 101.168 842.827 103.96C842.827 107.321 844.507 110.064 847.868 112.164C851.229 114.24 855.528 116.155 860.767 117.897C866.006 119.652 871.591 121.641 877.522 123.877C883.477 126.126 889.087 129.017 894.325 132.576C899.564 136.134 903.864 140.78 907.225 146.513C910.585 152.246 912.266 159.598 912.266 168.556C912.266 183.815 906.842 195.615 896.006 203.942C885.157 212.245 869.886 216.397 850.191 216.397Z" fill="black"/>
<g clip-path="url(#clip0_1548_47)">
<path d="M67.8858 24.874C71.24 36.026 72.8399 36.1177 64.6732 45.507C62.237 48.3081 60.0623 50.0228 57.1327 47.5708C58.4839 50.7514 60.1052 52.3657 61.6493 55.0011C65.2136 48.2165 70.3607 42.863 76.3313 38.2687C77.172 37.623 77.8154 36.951 77.9612 35.869C74.7915 32.0251 72.0507 27.7755 67.8858 24.874ZM46.4741 25.2754C45.9422 23.4953 44.7584 22.6052 43.0427 23.36C41.4042 24.0843 40.8209 25.6332 40.4005 27.4482C38.4318 35.9432 39.903 44.0934 42.4337 52.1738C43.047 54.1328 43.8234 56.0439 44.3123 58.0334C44.6254 59.3031 45.1101 60.8999 43.6732 61.7813C41.9532 62.8371 41.5029 60.7341 40.4349 60.1364C40.8509 61.4977 41.267 62.8546 41.683 64.2116C44.1407 64.0457 46.5041 63.5396 48.6187 62.174C44.1107 53.1163 42.262 43.3822 41.8074 33.3515C41.6487 29.8174 41.267 25.7771 46.4741 25.2754ZM166.859 41.5802C164.05 41.9947 162.622 45.7426 161.433 47.6144C158.529 52.1825 156.274 52.6014 150.912 50.3718C147.695 49.0368 144.886 47.165 141.583 46.0437C141.257 46.0393 140.039 47.6929 139.821 47.9416C139.73 49.3946 140.048 50.6118 141.561 51.1878C147.567 53.4609 153.567 55.7428 159.568 58.0246C161.472 53.7314 163.896 48.2688 166.859 41.5802ZM182.258 66.2447C181.387 66.6811 180.461 67.0388 179.654 67.5755C178.595 68.2866 177.569 68.627 176.476 67.7893C175.417 66.9733 175.369 65.8782 175.631 64.626C176.279 61.5414 177.342 58.5221 177.093 55.2977C175.202 57.7804 174.756 60.8869 173.593 63.6836C172.954 65.2238 172.702 67.209 170.252 66.0571C172.826 68.7622 175.953 70.682 179.148 72.5057C180.362 70.5118 181.799 68.627 182.258 66.2447Z" fill="black"/>
<path d="M125.038 149.252C122.723 149.352 121.689 147.149 121.934 144.841C122.229 142.284 123.315 140.229 126.124 139.78C128.342 140.33 129.131 141.935 128.981 144.039C128.835 146.595 127.651 149.104 125.038 149.252ZM131.25 134.715C131.005 133.261 130.657 131.805 130.117 130.351C129.822 129.448 129.426 128.597 128.934 127.847C128.487 127.092 127.947 126.39 127.308 125.791C126.073 124.588 124.597 123.732 122.723 123.383C119.223 122.681 116.559 124.287 114.393 126.791C114.144 127.044 113.899 127.393 113.655 127.694C112.077 129.749 110.992 131.957 110.254 134.265C109.906 135.417 109.662 136.621 109.465 137.873C109.315 139.078 109.216 140.33 109.216 141.581C109.216 143.589 109.465 145.491 109.906 147.249C111.335 152.564 114.59 156.324 118.584 156.875C122.624 157.377 126.862 153.916 129.328 148.751C129.723 147.952 130.066 147.097 130.362 146.246C130.657 145.343 130.906 144.44 131.1 143.488C131.25 142.686 131.395 141.835 131.447 141.032V140.98C131.545 139.928 131.584 138.886 131.55 137.843C131.52 136.791 131.421 135.749 131.25 134.715ZM65.646 132.157C65.4487 133.811 65.0069 135.818 63.1326 135.966H62.8838C62.5921 135.966 62.2961 135.867 62.146 135.718C61.4554 135.216 61.4554 133.911 61.3096 132.961C61.4082 132.559 61.5069 132.105 61.6056 131.655C61.7042 131.206 61.8029 130.805 61.9487 130.452C62.146 130.102 62.3433 129.802 62.6393 129.549C62.9824 129.3 63.377 129.147 63.8703 129.147C64.415 129.147 64.8096 129.3 65.0541 129.549C65.1528 129.601 65.2042 129.649 65.2514 129.749C65.3029 129.849 65.3501 129.902 65.3501 129.95C65.4015 130.05 65.4487 130.102 65.4959 130.203C65.5473 130.303 65.5474 130.404 65.5474 130.504C65.646 130.752 65.6974 131.106 65.6974 131.455C65.6974 131.704 65.646 131.957 65.646 132.157ZM62.5878 118.192C60.1515 117.742 53.915 120.129 53.915 131.155C54.2109 135.618 54.2195 141.726 59.4352 141.783C64.3378 141.84 65.7832 137.926 67.07 134.02C68.4898 129.705 67.3231 119.06 62.5878 118.192Z" fill="black"/>
<path d="M158.127 125.29C157.569 124.051 156.411 122.881 155.767 121.717C154.786 119.967 153.751 118.257 152.662 116.507C151.624 114.797 150.591 113.087 149.647 111.394C149.501 111.189 149.406 110.979 149.351 110.791C149.021 110.189 148.669 109.588 148.429 108.933C148.077 108.274 147.781 107.576 147.541 106.883C147.245 106.223 147.044 105.565 146.838 104.927C146.803 104.871 146.803 104.775 146.803 104.661C146.541 104.024 146.357 103.309 146.246 102.558C146.1 101.861 145.954 101.11 145.915 100.359C145.803 99.6047 145.765 98.8541 145.765 98.0474C145.765 96.9567 145.859 95.7914 146.005 94.6438C145.915 95.0936 145.803 95.5468 145.654 95.9397C145.413 96.5981 145.178 97.2574 144.877 97.8028C144.676 98.2518 144.436 98.7058 144.14 99.1557C143.251 100.717 142.218 102.104 141.33 103.61C141.073 104.064 140.777 104.57 140.537 105.076C140.386 105.32 140.296 105.53 140.184 105.831C140.147 105.888 140.129 105.94 140.112 106.001C131.461 107.672 121.905 106.729 117.379 104.797C115.75 104.099 114.346 102.991 113.291 101.598C112.24 100.229 111.537 98.5709 111.279 96.7858C111.13 95.3768 111.057 94.4343 111.057 94.4343C90.0353 115.412 63.5237 109.588 51.7755 105.831C51.9771 105.639 52.1015 105.521 52.1015 105.521C52.3417 105.281 51.4796 104.893 51.4796 104.893C51.4409 104.902 51.1707 104.583 51.1321 104.592L50.9091 104.308C50.6989 104.374 50.2314 104.242 50.0255 104.313C49.5794 104.426 49.1505 104.592 48.7216 104.766C46.4955 103.92 45.1358 103.244 44.9214 103.121C45.4918 103.92 46.3154 104.705 47.3062 105.46C44.1964 107.245 41.8503 112.283 40.2504 115.142C39.8344 115.43 33.2461 130.884 36.6088 154.23C36.7246 157.913 42.129 169.218 42.0304 168.764C41.9832 168.615 32.5384 136.573 45.0157 114.256C45.2559 113.828 45.8135 113.156 46.5126 112.393C48.3055 110.434 51.2222 108.889 53.6328 109.967C78.2013 120.229 100.882 106.202 101.316 105.879C101.544 105.708 109.671 99.5871 109.762 99.5871C109.912 99.701 111.778 104.53 114.012 105.962C117.564 108.2 124.088 109.347 128.115 109.853C131.332 110.264 137.659 109.91 138.71 109.797C140.978 109.557 143.239 109.418 144.937 110.967C149.802 115.403 153.409 121.974 152.422 128.239C152.16 129.688 148.398 149.994 148.343 150.749C149.231 151.049 151.89 145.866 152.482 144.514C152.572 144.365 154.077 135.609 154.116 135.513C156.239 132.655 157.642 128.916 158.916 127.206C158.676 126.546 158.418 125.892 158.127 125.29Z" fill="black"/>
<path d="M101.757 205.435C100.513 208.014 100.711 210.479 101.517 213.132C102.993 218.228 100.376 220.741 95.2332 219.38C93.9849 219.092 86.9807 213.974 83.8967 213.625C80.8085 213.276 73.3796 217.141 70.2871 217.015C69.7123 216.993 62.7724 215.54 68.8459 208.721C68.9403 207.067 65.1743 201.439 70.1369 200.344C72.7233 199.772 80.1094 204.977 84.1927 205.562C89.181 206.278 92.428 204.798 97.0732 202.839C97.8667 202.499 98.8018 202.455 99.6598 202.455C101.663 202.447 102.812 203.258 101.757 205.435Z" fill="black"/>
<path d="M93.4067 166.351C92.9649 166.853 92.5189 167.354 92.0256 167.803C84.5838 174.977 74.873 173.72 71.5232 164.697C71.0813 163.345 70.884 162.49 71.3773 161.888C71.4245 161.787 71.5232 161.739 71.6218 161.639C72.0164 161.338 72.6083 161.137 73.4447 160.937C88.1781 158.454 85.4717 150.155 85.0771 148.101C81.6457 145.6 77.6053 144.43 73.6935 142.97C72.2137 142.79 70.7983 142.62 69.3185 142.441C67.903 142.563 66.4748 142.454 65.115 142.638C59.7407 143.288 58.4067 144.697 59.6634 152.149C60.6114 157.795 68.8124 158.881 67.384 163.441C66.4962 166.25 64.18 168.659 60.7272 167.455C56.884 166.102 55.7989 163.091 56.9355 159.183H53.6328C53.8258 164.195 55.4428 166.683 57.0127 167.917C58.9086 169.409 60.6672 171.085 61.7051 173.284C63.8926 177.935 68.5422 184.755 77.2749 185.994L74.2339 180.876C80.2602 177.486 86.9858 177.28 93.8999 177.83C95.9202 174.27 95.0838 170.361 95.3797 166.6C94.8865 165.098 94.0973 166.151 93.4067 166.351Z" fill="black"/>
<path d="M93.8988 177.83C90.1028 185.954 77.5611 188.813 69.7891 183.145C76.5918 177.63 85.7193 177.18 93.8988 177.83Z" fill="black"/>
<path d="M142.114 163.585C141.865 163.834 141.668 164.087 141.424 164.288C140.39 165.387 139.305 166.442 138.121 167.346C133.141 171.355 120.771 174.06 119.587 176.722C112.394 181.884 114.067 192.865 110.224 193.468C108.941 193.716 107.659 194.165 106.329 194.467C96.0265 196.827 85.385 198.546 75.2796 195.724C32.4604 183.751 35.9003 138.811 35.9474 138.864C36.9211 116.673 42.2441 111.153 46.3274 107.432C48.0602 105.852 50.5394 105.417 52.7226 106.237C60.8721 109.304 87.7955 117.659 111.06 94.4436C111.06 94.4436 111.064 94.4654 111.064 94.4997C111.09 99.6575 113.496 103.71 118.223 105.399C123.276 107.205 131.76 108.806 139.845 106.629C146.785 105.399 151.627 114.802 152.662 116.503C152.674 116.521 152.683 116.542 152.695 116.56C156.358 122.559 156.578 130.112 153.382 136.385C151.499 140.077 146.845 158.367 142.114 163.585ZM64.7796 209.811C64.7324 209.811 64.681 209.86 64.6338 209.86C64.681 209.811 64.7324 209.759 64.7796 209.759V209.811ZM184.758 131.333C184.753 131.333 191.144 112.702 191.243 110.918C191.247 110.91 191.251 110.896 191.256 110.888V110.839C191.256 110.787 191.302 110.74 191.302 110.687C192.98 97.6017 189.428 86.0705 181.301 75.8914C180.46 74.8922 179.868 73.6357 179.178 72.4838C175.973 70.6776 172.868 68.7752 170.256 66.0658C167.352 62.5055 162.668 61.3537 159.61 57.9941C153.596 55.7383 147.587 53.4303 141.57 51.1746C140.043 50.6249 139.746 49.3726 139.845 47.9154C131.369 34.3288 119.146 27.8103 103.421 28.2641C96.078 28.4648 89.1767 30.7205 82.6227 34.0277C81.143 34.7825 79.8133 35.9867 77.9903 35.8863C77.8402 36.9378 77.2012 37.6403 76.3605 38.2424C70.3985 42.8542 65.2256 48.2164 61.6742 54.9879C59.5553 61.5544 54.3826 62.3572 48.665 62.1564C46.5418 63.509 44.1785 64.0107 41.7121 64.2114C34.8623 67.9724 28.1583 71.8338 24.165 79.1027C19.0394 88.4265 19.8758 92.2396 29.0461 97.6545C24.6111 102.367 20.4205 107.179 18.9922 113.798C18.5461 115.805 18.203 117.807 18.203 119.862C18.203 126.581 19.3353 127.986 25.7434 128.99C22.1448 136.962 18.4989 144.885 18.0057 153.807C17.5639 163.284 18.0572 172.259 28.6987 176.168C30.3286 176.77 30.1785 178.175 30.4272 179.576C32.5461 192.411 39.4474 199.733 52.4095 202.337C55.4163 202.892 54.7814 207.303 53.6962 209.759C52.1779 213.407 48.6006 214.628 47.1852 218.311C45.2251 223.402 48.502 229.193 44.3157 232.617C38.3838 237.473 40.8286 242.954 39.1987 248.168C38.4095 250.672 37.0283 252.076 34.665 253.181C32.1001 254.332 29.4407 255.336 26.8758 256.541C49.0553 269.673 74.8335 277.195 102.388 277.195C120.574 277.195 137.975 273.936 154.09 267.919C153.004 267.317 151.825 266.868 150.641 266.467C145.288 264.734 141.616 260.354 139.764 256.405C138.233 253.15 138.095 250.594 137.876 246.562C137.576 241.243 140.943 238.194 141.535 232.997C142.114 227.901 137.743 221.379 138.807 216.343C139.344 213.817 142.067 210.575 142.655 208.053C143.397 204.846 145.168 205.65 147.141 205.697C156.016 205.95 160.468 196.264 161.789 188.742C177.234 188.341 184.578 175.666 187.794 168.009C191.102 160.138 192.105 144.571 184.758 131.333Z" fill="black"/>
<path d="M59.5476 16.2918C48.9275 5.19646 40.0059 7.31691 36.0599 22.2081C32.8086 34.4945 34.1425 46.5366 39.577 58.0508L40.4434 60.1494L40.4349 60.1363C41.5028 60.734 41.9532 62.8327 43.6732 61.7812C45.1101 60.8998 44.6254 59.303 44.3123 58.0334C43.8233 56.0481 43.0469 54.1327 42.4336 52.1737C39.9029 44.0933 38.4318 35.9431 40.4005 27.4481C40.8208 25.6331 41.4042 24.0842 43.0426 23.3599C44.7584 22.6051 45.9422 23.4952 46.474 25.2753L46.4826 25.0877C46.8258 25.5895 51.5482 33.4867 51.5696 34.4291L53.5599 39.5121C54.7822 43.1552 58.4968 50.267 58.4968 50.267C58.8441 50.6161 62.2369 48.308 64.6732 45.5069C72.8398 36.1132 72.3766 34.5556 71.7204 28.2423C71.7204 28.2423 59.6548 16.4008 59.5476 16.2918ZM182.258 66.2446C188.816 52.9634 191.051 39.0233 188.357 24.3591C188.048 22.6836 187.547 21.0214 186.941 19.4331C182.408 7.52197 176.253 5.9469 166.893 14.5116C156.424 24.0973 148.763 33.7266 141.583 46.0436C144.886 47.1649 147.695 49.0367 150.912 50.3761C156.274 52.6013 160.318 53.4651 163.222 48.8927C164.41 47.0209 165.054 45.6596 166.86 41.5801C169.45 37.3741 171.037 32.5573 174.305 28.7614C175.563 27.3042 177.09 25.9778 179.096 26.4403C181.177 26.9158 180.954 29.1541 181.198 30.6725C181.756 34.0669 181.55 37.505 180.692 40.8821C179.474 45.6815 178.29 50.4896 177.094 55.2933C177.342 58.522 176.278 61.5413 175.631 64.626C175.369 65.8781 175.416 66.9732 176.476 67.7892C177.57 68.6269 178.595 68.2865 179.654 67.5754C180.46 67.0387 181.387 66.681 182.258 66.2446Z" fill="black"/>
<path d="M120.407 162.481C107.985 162.481 97.88 152.341 97.88 139.937C97.88 127.528 107.985 117.388 120.407 117.388C132.829 117.388 142.929 127.528 142.929 139.937C142.929 152.341 132.829 162.481 120.407 162.481ZM146.382 139.937C146.382 125.56 134.699 113.859 120.407 113.859C106.064 113.859 94.4315 125.56 94.4315 139.937C94.4315 154.309 106.064 166.011 120.407 166.011C126.905 166.011 132.905 163.593 137.44 159.57C138.696 167.346 139.965 187.512 122.997 201.526C108.02 213.071 93.2991 214.214 92.8831 214.262C92.6471 214.319 69.3095 220.122 66.2041 247.945L69.6312 248.346C72.4535 223.058 92.793 217.91 93.3806 217.748C94.024 217.704 109.229 216.552 125.121 204.31C145.692 187.32 141.608 162.145 140.377 156.517C144.118 152.027 146.382 146.233 146.382 139.937Z" fill="black"/>
</g>
<defs>
<clipPath id="clip0_1548_47">
<path d="M0 0H210V108.437C210 170.052 160.052 220 98.4375 220V220C44.072 220 0 175.928 0 121.562V0Z" fill="white"/>
</clipPath>
</defs>
</svg>
